<svg width="24" height="24" viewBox="0 0 24 24" fill="none" xmlns="http://www.w3.org/2000/svg">
<path d="M3.94778 13.318C3.85825 13.5624 3.67695 13.7623 3.4424 13.8752C3.20784 13.988 2.93852 14.005 2.69166 13.9224C2.4448 13.8399 2.23985 13.6643 2.12037 13.4331C2.00089 13.2018 1.97628 12.9331 2.05178 12.684C2.08735 12.5739 2.12874 12.4637 2.17578 12.358C2.25578 12.168 2.37378 11.906 2.53578 11.596C2.86578 10.976 3.37978 10.15 4.13778 9.324C5.66778 7.654 8.17378 6 11.9998 6C15.8258 6 18.3318 7.654 19.8618 9.324C20.6784 10.22 21.3408 11.2452 21.8218 12.358L21.9138 12.584C21.9198 12.6 21.9398 12.704 21.9598 12.804L21.9998 13C21.9998 13 22.1678 13.666 21.3158 13.948C21.0649 14.0318 20.791 14.0128 20.5541 13.8951C20.3172 13.7773 20.1366 13.5706 20.0518 13.32V13.314L20.0398 13.282C19.9393 13.0251 19.8245 12.774 19.6958 12.53C19.3402 11.859 18.9006 11.236 18.3878 10.676C17.1678 9.346 15.1738 8 11.9998 8C8.82578 8 6.83178 9.346 5.61178 10.676C4.95126 11.4001 4.41412 12.2278 4.02178 13.126C4.0008 13.1776 3.9808 13.2296 3.96178 13.282L3.94778 13.318ZM7.99978 14C7.99978 12.9391 8.42121 11.9217 9.17135 11.1716C9.9215 10.4214 10.9389 10 11.9998 10C13.0606 10 14.0781 10.4214 14.8282 11.1716C15.5784 11.9217 15.9998 12.9391 15.9998 14C15.9998 15.0609 15.5784 16.0783 14.8282 16.8284C14.0781 17.5786 13.0606 18 11.9998 18C10.9389 18 9.9215 17.5786 9.17135 16.8284C8.42121 16.0783 7.99978 15.0609 7.99978 14Z" fill="#ADAAAF"/>
</svg>
