<svg width="28" height="28" viewBox="0 0 28 28" fill="none" xmlns="http://www.w3.org/2000/svg">
<path d="M14 3.5C11.9233 3.5 9.89323 4.11581 8.16652 5.26957C6.4398 6.42332 5.09399 8.0632 4.29927 9.98182C3.50455 11.9004 3.29661 14.0116 3.70176 16.0484C4.1069 18.0852 5.10693 19.9562 6.57538 21.4246C8.04383 22.8931 9.91476 23.8931 11.9516 24.2982C13.9884 24.7034 16.0996 24.4955 18.0182 23.7007C19.9368 22.906 21.5767 21.5602 22.7304 19.8335C23.8842 18.1068 24.5 16.0767 24.5 14M14 3.5C16.7848 3.5 19.4555 4.60625 21.4246 6.57538C23.3938 8.54451 24.5 11.2152 24.5 14M14 3.5V14M24.5 14H14M14 14L21 21.5833" stroke="white" stroke-width="2" stroke-linecap="round" stroke-linejoin="round"/>
</svg>
