<svg width="20" height="20" viewBox="0 0 20 20" fill="none" xmlns="http://www.w3.org/2000/svg">
<path d="M6.25843 16.5016C7.83473 17.4086 9.68689 17.712 11.4702 17.3553C13.2535 16.9986 14.8464 16.006 15.9525 14.5624C17.0586 13.1188 17.6024 11.3224 17.4828 9.50776C17.3632 7.69307 16.5883 5.98365 15.3023 4.69769C14.0164 3.41172 12.307 2.63682 10.4923 2.51722C8.67758 2.39762 6.88125 2.94147 5.43763 4.04754C3.99402 5.1536 3.00147 6.74654 2.64474 8.52983C2.28801 10.3131 2.5914 12.1653 3.49843 13.7416L3.50093 13.7458C3.56177 13.8516 3.5926 13.9049 3.60677 13.9558C3.6201 14.0033 3.62343 14.0458 3.6201 14.0958C3.60996 14.1702 3.59036 14.243 3.56177 14.3124L2.92177 16.2349L2.92093 16.2374C2.78593 16.6433 2.71843 16.8458 2.76593 16.9808C2.8076 17.0991 2.90177 17.1916 3.01927 17.2341C3.15427 17.2816 3.35593 17.2149 3.7601 17.0799L3.7651 17.0783L5.68677 16.4374C5.79593 16.4008 5.85177 16.3824 5.9051 16.3791C5.95196 16.3754 5.9991 16.3802 6.04427 16.3933C6.11819 16.4208 6.18889 16.4562 6.2551 16.4991L6.25843 16.5016Z" fill="#A7EDFF" stroke="#006878" stroke-width="1.5" stroke-linecap="round" stroke-linejoin="round"/>
</svg>
