<svg width="24" height="24" viewBox="0 0 24 24" fill="none" xmlns="http://www.w3.org/2000/svg">
<path d="M2 19.9997H4M4 19.9997H10M4 19.9997V11.4517C4 10.9177 4 10.6507 4.065 10.4017C4.12256 10.1816 4.21725 9.97297 4.345 9.78473C4.49 9.57173 4.691 9.39473 5.093 9.04373L9.894 4.84173C10.64 4.18973 11.013 3.86373 11.432 3.73973C11.802 3.62973 12.197 3.62973 12.567 3.73973C12.987 3.86373 13.361 4.18973 14.107 4.84373L18.907 9.04373C19.309 9.39573 19.51 9.57173 19.655 9.78373C19.782 9.97373 19.877 10.1817 19.935 10.4017C20 10.6507 20 10.9177 20 11.4517V19.9997M10 19.9997H14M10 19.9997V15.9997C10 15.4693 10.2107 14.9606 10.5858 14.5855C10.9609 14.2104 11.4696 13.9997 12 13.9997C12.5304 13.9997 13.0391 14.2104 13.4142 14.5855C13.7893 14.9606 14 15.4693 14 15.9997V19.9997M20 19.9997H14M20 19.9997H22" stroke="#126B56" stroke-width="2" stroke-linecap="round" stroke-linejoin="round"/>
</svg>
