<svg width="16" height="16" viewBox="0 0 16 16" fill="none" xmlns="http://www.w3.org/2000/svg">
<path d="M1.55653 6.89157C1.5097 6.84837 1.47623 6.79266 1.46009 6.73102C1.44395 6.66939 1.44581 6.60442 1.46545 6.54381C1.4851 6.4832 1.5217 6.42949 1.57092 6.38904C1.62014 6.34859 1.67993 6.3231 1.74319 6.31557L5.74586 5.84091C5.80257 5.83429 5.85662 5.81322 5.90285 5.77972C5.94908 5.74622 5.98593 5.70141 6.00986 5.64957L7.69786 1.98958C7.72454 1.93175 7.76723 1.88278 7.82086 1.84846C7.8745 1.81414 7.93685 1.7959 8.00053 1.7959C8.06421 1.7959 8.12655 1.81414 8.18019 1.84846C8.23383 1.88278 8.27652 1.93175 8.30319 1.98958L9.9912 5.64957C10.015 5.70135 10.0518 5.74614 10.0979 5.77965C10.144 5.81315 10.1979 5.83425 10.2545 5.84091L14.2572 6.31557C14.3205 6.3231 14.3802 6.34859 14.4295 6.38904C14.4787 6.42949 14.5153 6.4832 14.5349 6.54381C14.5546 6.60442 14.5564 6.66939 14.5403 6.73102C14.5242 6.79266 14.4907 6.84837 14.4439 6.89157L11.4852 9.62824C11.4435 9.66698 11.4124 9.71574 11.3949 9.76989C11.3774 9.82404 11.3741 9.88177 11.3852 9.93757L12.1699 13.8909C12.1824 13.9534 12.1767 14.0182 12.1534 14.0776C12.1302 14.1369 12.0905 14.1884 12.0389 14.2259C11.9873 14.2634 11.9261 14.2853 11.8625 14.289C11.7988 14.2927 11.7355 14.2781 11.6799 14.2469L8.16319 12.2782C8.1135 12.2504 8.05749 12.2358 8.00053 12.2358C7.94356 12.2358 7.88755 12.2504 7.83786 12.2782L4.32053 14.2462C4.26499 14.2774 4.2017 14.2919 4.13814 14.2882C4.07458 14.2845 4.01341 14.2627 3.96186 14.2253C3.91032 14.1879 3.87056 14.1366 3.84729 14.0773C3.82401 14.0181 3.8182 13.9534 3.83053 13.8909L4.61586 9.93757C4.62698 9.88177 4.62363 9.82404 4.60613 9.76989C4.58862 9.71574 4.55755 9.66698 4.51586 9.62824L1.55653 6.89157Z" fill="#FFEB80" stroke="#FFA500" stroke-width="1.5" stroke-linecap="round" stroke-linejoin="round"/>
</svg>
