<svg width="24" height="24" viewBox="0 0 24 24" fill="none" xmlns="http://www.w3.org/2000/svg">
<path d="M10.3078 13.692L15.1538 8.84598M20.1098 5.88998L16.0198 19.184C15.6528 20.376 15.4698 20.972 15.1528 21.169C15.0179 21.2534 14.8647 21.3043 14.7061 21.3175C14.5474 21.3308 14.3879 21.3059 14.2408 21.245C13.8968 21.102 13.6168 20.545 13.0588 19.429L10.4688 14.247C10.4153 14.1272 10.3507 14.0127 10.2758 13.905C10.2238 13.8372 10.1633 13.7764 10.0958 13.724C9.99154 13.6518 9.88073 13.5895 9.76484 13.538L4.57184 10.94C3.45684 10.382 2.89884 10.103 2.75584 9.75898C2.69484 9.61175 2.66991 9.45208 2.68313 9.29326C2.69635 9.13445 2.74734 8.98109 2.83184 8.84598C3.02884 8.52998 3.62484 8.34598 4.81684 7.97898L18.1118 3.88898C19.0488 3.59998 19.5168 3.45598 19.8338 3.57298C19.97 3.62298 20.0937 3.70201 20.1962 3.80458C20.2988 3.90715 20.3778 4.03081 20.4278 4.16698C20.5438 4.48298 20.3998 4.95098 20.1118 5.88698L20.1098 5.88998Z" stroke="#126B56" stroke-width="2" stroke-linecap="round" stroke-linejoin="round"/>
</svg>
