<svg width="28" height="28" viewBox="0 0 28 28" fill="none" xmlns="http://www.w3.org/2000/svg">
<path d="M10.8942 18.6548C12.428 18.568 13.8907 17.979 15.0566 16.9786C16.2226 15.9783 17.0271 14.6221 17.346 13.1193C17.665 11.6165 17.4807 10.0505 16.8216 8.66283C16.1625 7.27512 15.0652 6.14278 13.6988 5.44042C12.3325 4.73806 10.7731 4.50469 9.261 4.77629C7.74892 5.04789 6.36819 5.80938 5.33171 6.94333C4.29523 8.07729 3.66057 9.52073 3.52561 11.0511C3.39064 12.5814 3.76287 14.1136 4.58488 15.4115L4.09021 16.8955V16.8978C3.90005 17.466 3.80555 17.7495 3.87205 17.9397C3.93038 18.1042 4.06221 18.2348 4.22671 18.2932C4.41571 18.3608 4.69805 18.2663 5.26271 18.0785L5.27088 18.0762L6.75488 17.5815C7.98801 18.3644 9.43603 18.7399 10.8942 18.6548ZM10.8942 18.6548C11.2438 19.648 11.8128 20.5496 12.5589 21.2925C13.305 22.0354 14.209 22.6005 15.2036 22.9458C16.1983 23.2911 17.258 23.4077 18.3039 23.2869C19.3499 23.1662 20.3551 22.8111 21.2449 22.2482L22.7289 22.7428H22.7324C23.3005 22.933 23.584 23.0275 23.7742 22.9598C23.8554 22.9306 23.9292 22.8838 23.9901 22.8227C24.051 22.7615 24.0976 22.6877 24.1265 22.6063C24.1942 22.4173 24.0997 22.1327 23.9095 21.5622L23.4149 20.0782L23.5805 19.804C24.1885 18.7393 24.5061 17.5336 24.5016 16.3075C24.4971 15.0815 24.1706 13.8781 23.5549 12.8179C22.9392 11.7576 22.0558 10.8777 20.9932 10.2661C19.9306 9.65458 18.7259 9.33286 17.4999 9.33317L17.2374 9.33783L17.1055 9.34483" stroke="white" stroke-width="2" stroke-linecap="round" stroke-linejoin="round"/>
</svg>
