<svg width="36" height="36" viewBox="0 0 36 36" fill="none" xmlns="http://www.w3.org/2000/svg">
<path d="M11.265 29.7031C14.1023 31.3357 17.4362 31.8818 20.6462 31.2397C23.8561 30.5976 26.7234 28.811 28.7143 26.2125C30.7052 23.614 31.6841 20.3806 31.4689 17.1142C31.2536 13.8477 29.8588 10.7708 27.544 8.45603C25.2293 6.14129 22.1523 4.74647 18.8859 4.53119C15.6194 4.31591 12.386 5.29484 9.78754 7.28576C7.18904 9.27668 5.40245 12.144 4.76034 15.3539C4.11822 18.5638 4.66432 21.8977 6.29699 24.7351L6.30149 24.7426C6.41099 24.9331 6.46649 25.0291 6.49199 25.1206C6.51599 25.2061 6.52199 25.2826 6.51599 25.3726C6.49774 25.5065 6.46245 25.6376 6.41099 25.7626L5.25899 29.2231L5.25749 29.2276C5.01449 29.9581 4.89299 30.3226 4.97849 30.5656C5.05349 30.7786 5.22299 30.9451 5.43449 31.0216C5.67749 31.1071 6.04049 30.9871 6.76799 30.7441L6.77699 30.7411L10.236 29.5876C10.4325 29.5216 10.533 29.4886 10.629 29.4826C10.7133 29.476 10.7982 29.4846 10.8795 29.5081C11.0125 29.5576 11.1398 29.6214 11.259 29.6986L11.265 29.7031Z" stroke="#126B56" stroke-width="3" stroke-linecap="round" stroke-linejoin="round"/>
<path d="M12.167 22.1668H23.8337M12.167 18.0002H23.8337M12.167 13.8335H23.8337" stroke="#126B56" stroke-width="3" stroke-linecap="round" stroke-linejoin="round"/>
</svg>
