<svg width="19" height="19" viewBox="0 0 19 19" fill="none" xmlns="http://www.w3.org/2000/svg">
<path d="M1.5835 15.8333H3.16683M3.16683 15.8333H7.91683M3.16683 15.8333V9.06615C3.16683 8.6434 3.16683 8.43203 3.21829 8.2349C3.26386 8.06066 3.33882 7.89547 3.43995 7.74645C3.55475 7.57782 3.71387 7.43769 4.03212 7.15982L7.83291 3.83324C8.4235 3.31707 8.71879 3.05899 9.0505 2.96082C9.34341 2.87374 9.65612 2.87374 9.94904 2.96082C10.2815 3.05899 10.5776 3.31707 11.1682 3.83482L14.9682 7.15982C15.2865 7.43849 15.4456 7.57782 15.5604 7.74565C15.6609 7.89607 15.7361 8.06074 15.782 8.2349C15.8335 8.43203 15.8335 8.6434 15.8335 9.06615V15.8333M7.91683 15.8333H11.0835M7.91683 15.8333V12.6667C7.91683 12.2467 8.08364 11.844 8.38058 11.5471C8.67751 11.2501 9.08024 11.0833 9.50016 11.0833C9.92009 11.0833 10.3228 11.2501 10.6197 11.5471C10.9167 11.844 11.0835 12.2467 11.0835 12.6667V15.8333M15.8335 15.8333H11.0835M15.8335 15.8333H17.4168" stroke="#87D6BC" stroke-width="2" stroke-linecap="round" stroke-linejoin="round"/>
</svg>
