<svg width="16" height="15" viewBox="0 0 16 15" fill="none" xmlns="http://www.w3.org/2000/svg">
<path d="M1.55653 5.89157C1.5097 5.84837 1.47623 5.79266 1.46009 5.73102C1.44395 5.66939 1.44581 5.60442 1.46545 5.54381C1.4851 5.4832 1.5217 5.42949 1.57092 5.38904C1.62014 5.34859 1.67993 5.3231 1.74319 5.31557L5.74586 4.84091C5.80257 4.83429 5.85662 4.81322 5.90285 4.77972C5.94908 4.74622 5.98593 4.70141 6.00986 4.64957L7.69786 0.989575C7.72454 0.931754 7.76723 0.882785 7.82086 0.848462C7.8745 0.814139 7.93685 0.795898 8.00053 0.795898C8.06421 0.795898 8.12655 0.814139 8.18019 0.848462C8.23383 0.882785 8.27652 0.931754 8.30319 0.989575L9.9912 4.64957C10.015 4.70135 10.0518 4.74614 10.0979 4.77965C10.144 4.81315 10.1979 4.83425 10.2545 4.84091L14.2572 5.31557C14.3205 5.3231 14.3802 5.34859 14.4295 5.38904C14.4787 5.42949 14.5153 5.4832 14.5349 5.54381C14.5546 5.60442 14.5564 5.66939 14.5403 5.73102C14.5242 5.79266 14.4907 5.84837 14.4439 5.89157L11.4852 8.62824C11.4435 8.66698 11.4124 8.71574 11.3949 8.76989C11.3774 8.82404 11.3741 8.88177 11.3852 8.93757L12.1699 12.8909C12.1824 12.9534 12.1767 13.0182 12.1534 13.0776C12.1302 13.1369 12.0905 13.1884 12.0389 13.2259C11.9873 13.2634 11.9261 13.2853 11.8625 13.289C11.7988 13.2927 11.7355 13.2781 11.6799 13.2469L8.16319 11.2782C8.1135 11.2504 8.05749 11.2358 8.00053 11.2358C7.94356 11.2358 7.88755 11.2504 7.83786 11.2782L4.32053 13.2462C4.26499 13.2774 4.2017 13.2919 4.13814 13.2882C4.07458 13.2845 4.01341 13.2627 3.96186 13.2253C3.91032 13.1879 3.87056 13.1366 3.84729 13.0773C3.82401 13.0181 3.8182 12.9534 3.83053 12.8909L4.61586 8.93757C4.62698 8.88177 4.62363 8.82404 4.60613 8.76989C4.58862 8.71574 4.55755 8.66698 4.51586 8.62824L1.55653 5.89157Z" fill="#FFEB80" stroke="#FFA500" stroke-width="1.5" stroke-linecap="round" stroke-linejoin="round"/>
</svg>
