<svg width="17" height="17" viewBox="0 0 17 17" fill="none" xmlns="http://www.w3.org/2000/svg">
<path d="M8.5 5.54134V9.49967H12.4583M15.6282 3.61838L13.2017 1.58301M3.80067 1.58301L1.375 3.61838M8.5 15.833C6.8203 15.833 5.20939 15.1657 4.02166 13.978C2.83393 12.7903 2.16667 11.1794 2.16667 9.49967C2.16667 7.81997 2.83393 6.20906 4.02166 5.02133C5.20939 3.8336 6.8203 3.16634 8.5 3.16634C10.1797 3.16634 11.7906 3.8336 12.9783 5.02133C14.1661 6.20906 14.8333 7.81997 14.8333 9.49967C14.8333 11.1794 14.1661 12.7903 12.9783 13.978C11.7906 15.1657 10.1797 15.833 8.5 15.833Z" stroke="#87D6BC" stroke-width="2" stroke-linecap="round" stroke-linejoin="round"/>
</svg>
