<svg width="84" height="85" viewBox="0 0 84 85" fill="none" xmlns="http://www.w3.org/2000/svg">
<g clip-path="url(#clip0_144_1837)">
<rect y="0.330078" width="84" height="84" rx="13.125" fill="#A3F2D8"/>
<path d="M0 38.4743C7.66965 33.5798 26.5208 28.6652 29.0639 45.7403C32.2428 67.0841 15.5916 72.5336 17.1053 50.4329C18.6191 28.3322 42.1853 6.01167 47.3802 19.1259C50.2031 26.252 47.3802 34.5893 43.5959 39.1305C48.2885 36.5135 63.547 22.6708 67.6644 34.5385C72.8112 49.3733 42.5363 81.616 35.2703 71.3225C28.0043 61.0291 46.3206 53.0062 55.8572 55.9099C65.3681 58.8057 69.4809 77.5289 66.1507 84.6435" stroke="#126B56" stroke-width="4.23849" stroke-linecap="round" stroke-linejoin="round"/>
</g>
<defs>
<clipPath id="clip0_144_1837">
<rect y="0.330078" width="84" height="84" rx="13.125" fill="white"/>
</clipPath>
</defs>
</svg>
