<svg width="19" height="19" viewBox="0 0 19 19" fill="none" xmlns="http://www.w3.org/2000/svg">
<path d="M9.5 5.54134V9.49967H13.4583M16.6282 3.61838L14.2017 1.58301M4.80067 1.58301L2.375 3.61838M9.5 15.833C7.8203 15.833 6.20939 15.1657 5.02166 13.978C3.83393 12.7903 3.16667 11.1794 3.16667 9.49967C3.16667 7.81997 3.83393 6.20906 5.02166 5.02133C6.20939 3.8336 7.8203 3.16634 9.5 3.16634C11.1797 3.16634 12.7906 3.8336 13.9783 5.02133C15.1661 6.20906 15.8333 7.81997 15.8333 9.49967C15.8333 11.1794 15.1661 12.7903 13.9783 13.978C12.7906 15.1657 11.1797 15.833 9.5 15.833Z" stroke="#87D6BC" stroke-width="2" stroke-linecap="round" stroke-linejoin="round"/>
</svg>
