<svg width="40" height="40" viewBox="0 0 40 40" fill="none" xmlns="http://www.w3.org/2000/svg">
<path d="M15.5633 26.65C17.7545 26.526 19.844 25.6845 21.5096 24.2555C23.1753 22.8264 24.3245 20.889 24.7802 18.7422C25.2358 16.5953 24.9726 14.3582 24.031 12.3757C23.0894 10.3933 21.5218 8.77568 19.5699 7.77231C17.618 6.76894 15.3903 6.43554 13.2301 6.82355C11.07 7.21155 9.09755 8.29939 7.61686 9.91933C6.13618 11.5393 5.22953 13.6013 5.03672 15.7875C4.84392 17.9737 5.37566 20.1626 6.54997 22.0167L5.8433 24.1367V24.14C5.57163 24.9517 5.43663 25.3567 5.53163 25.6284C5.61497 25.8634 5.8033 26.05 6.0383 26.1334C6.3083 26.23 6.71163 26.095 7.5183 25.8267L7.52997 25.8234L9.64997 25.1167C11.4116 26.2351 13.4802 26.7715 15.5633 26.65ZM15.5633 26.65C16.0627 28.0689 16.8755 29.3568 17.9414 30.4181C19.0072 31.4794 20.2987 32.2867 21.7196 32.78C23.1405 33.2733 24.6544 33.4399 26.1486 33.2673C27.6428 33.0948 29.0789 32.5876 30.35 31.7834L32.47 32.49H32.475C33.2866 32.7617 33.6916 32.8967 33.9633 32.8C34.0793 32.7583 34.1847 32.6914 34.2717 32.6041C34.3587 32.5168 34.4253 32.4112 34.4666 32.295C34.5633 32.025 34.4283 31.6184 34.1566 30.8034L33.45 28.6834L33.6866 28.2917C34.5551 26.7707 35.0088 25.0482 35.0024 23.2967C34.996 21.5452 34.5296 19.8261 33.6501 18.3115C32.7705 16.7969 31.5085 15.5398 29.9904 14.6662C28.4724 13.7925 26.7515 13.3329 25 13.3334L24.625 13.34L24.4366 13.35" stroke="#126B56" stroke-width="3" stroke-linecap="round" stroke-linejoin="round"/>
</svg>
