<svg width="41" height="40" viewBox="0 0 41 40" fill="none" xmlns="http://www.w3.org/2000/svg">
<path d="M7.16699 33.3333H33.8337M7.16699 33.3333V26.6666L20.5003 13.3333L25.282 8.55159L25.2837 8.54992C25.942 7.89159 26.272 7.56159 26.652 7.43825C26.9867 7.3295 27.3473 7.3295 27.682 7.43825C28.062 7.56159 28.3903 7.89159 29.0487 8.54825L31.9487 11.4483C32.6087 12.1083 32.9387 12.4383 33.062 12.8183C33.1707 13.153 33.1707 13.5135 33.062 13.8483C32.9387 14.2283 32.6087 14.5583 31.9487 15.2183L27.167 20.0016L20.5003 13.3349M7.16699 33.3333H13.8337L27.167 19.9999" stroke="#126B56" stroke-width="3" stroke-linecap="round" stroke-linejoin="round"/>
</svg>
