<svg width="40" height="40" viewBox="0 0 40 40" fill="none" xmlns="http://www.w3.org/2000/svg">
<path d="M33.3337 28.3334V19.0868C33.3337 18.1968 33.3337 17.7518 33.2253 17.3368C33.1294 16.9699 32.9716 16.6222 32.7587 16.3084C32.517 15.9534 32.1837 15.6584 31.512 15.0734L23.512 8.07345C22.2687 6.98511 21.6453 6.44011 20.9453 6.23345C20.3287 6.05011 19.672 6.05011 19.0537 6.23345C18.3537 6.44011 17.7337 6.98345 16.4903 8.07011L8.48866 15.0734C7.81866 15.6601 7.48366 15.9534 7.24366 16.3068C7.02999 16.6209 6.8716 16.9693 6.77533 17.3368C6.66699 17.7501 6.66699 18.1968 6.66699 19.0868V28.3334C6.66699 29.8868 6.66699 30.6634 6.92033 31.2751C7.08766 31.6797 7.33304 32.0473 7.64245 32.357C7.95187 32.6667 8.31927 32.9124 8.72366 33.0801C9.33699 33.3334 10.1137 33.3334 11.667 33.3334C13.2203 33.3334 13.997 33.3334 14.6103 33.0801C15.0147 32.9124 15.3821 32.6667 15.6915 32.357C16.0009 32.0473 16.2463 31.6797 16.4137 31.2751C16.667 30.6634 16.667 29.8868 16.667 28.3334V26.6668C16.667 25.7827 17.0182 24.9349 17.6433 24.3098C18.2684 23.6846 19.1163 23.3334 20.0003 23.3334C20.8844 23.3334 21.7322 23.6846 22.3573 24.3098C22.9825 24.9349 23.3337 25.7827 23.3337 26.6668V28.3334C23.3337 29.8868 23.3337 30.6634 23.587 31.2751C23.7543 31.6797 23.9997 32.0473 24.3091 32.357C24.6185 32.6667 24.9859 32.9124 25.3903 33.0801C26.0037 33.3334 26.7803 33.3334 28.3337 33.3334C29.887 33.3334 30.6637 33.3334 31.277 33.0801C31.6814 32.9124 32.0488 32.6667 32.3582 32.357C32.6676 32.0473 32.913 31.6797 33.0803 31.2751C33.3337 30.6634 33.3337 29.8868 33.3337 28.3334Z" stroke="#126B56" stroke-width="3" stroke-linecap="round" stroke-linejoin="round"/>
</svg>
