<svg width="41" height="40" viewBox="0 0 41 40" fill="none" xmlns="http://www.w3.org/2000/svg">
<path d="M7.1665 33.333H33.8332M7.1665 33.333V26.6663L20.4998 13.333L25.2815 8.55134L25.2832 8.54968C25.9415 7.89134 26.2715 7.56134 26.6515 7.43801C26.9862 7.32926 27.3468 7.32926 27.6815 7.43801C28.0615 7.56134 28.3898 7.89134 29.0482 8.54801L31.9482 11.448C32.6082 12.108 32.9382 12.438 33.0615 12.818C33.1703 13.1527 33.1703 13.5133 33.0615 13.848C32.9382 14.228 32.6082 14.558 31.9482 15.218L27.1665 20.0013L20.4998 13.3347M7.1665 33.333H13.8332L27.1665 19.9997" stroke="#8E918F" stroke-width="3" stroke-linecap="round" stroke-linejoin="round"/>
</svg>
