<svg width="40" height="40" viewBox="0 0 40 40" fill="none" xmlns="http://www.w3.org/2000/svg">
<path d="M33.3332 28.3332V19.0865C33.3332 18.1965 33.3332 17.7515 33.2248 17.3365C33.129 16.9697 32.9711 16.6219 32.7582 16.3082C32.5165 15.9532 32.1832 15.6582 31.5115 15.0732L23.5115 8.0732C22.2682 6.98487 21.6448 6.43987 20.9448 6.2332C20.3282 6.04987 19.6715 6.04987 19.0532 6.2332C18.3532 6.43987 17.7332 6.9832 16.4898 8.06987L8.48817 15.0732C7.81817 15.6599 7.48317 15.9532 7.24317 16.3065C7.0295 16.6207 6.87111 16.969 6.77484 17.3365C6.6665 17.7499 6.6665 18.1965 6.6665 19.0865V28.3332C6.6665 29.8865 6.6665 30.6632 6.91984 31.2749C7.08717 31.6794 7.33255 32.047 7.64197 32.3567C7.95138 32.6664 8.31878 32.9122 8.72317 33.0799C9.3365 33.3332 10.1132 33.3332 11.6665 33.3332C13.2198 33.3332 13.9965 33.3332 14.6098 33.0799C15.0142 32.9122 15.3816 32.6664 15.691 32.3567C16.0005 32.047 16.2458 31.6794 16.4132 31.2749C16.6665 30.6632 16.6665 29.8865 16.6665 28.3332V26.6665C16.6665 25.7825 17.0177 24.9346 17.6428 24.3095C18.2679 23.6844 19.1158 23.3332 19.9998 23.3332C20.8839 23.3332 21.7317 23.6844 22.3569 24.3095C22.982 24.9346 23.3332 25.7825 23.3332 26.6665V28.3332C23.3332 29.8865 23.3332 30.6632 23.5865 31.2749C23.7538 31.6794 23.9992 32.047 24.3086 32.3567C24.6181 32.6664 24.9854 32.9122 25.3898 33.0799C26.0032 33.3332 26.7798 33.3332 28.3332 33.3332C29.8865 33.3332 30.6632 33.3332 31.2765 33.0799C31.6809 32.9122 32.0483 32.6664 32.3577 32.3567C32.6671 32.047 32.9125 31.6794 33.0798 31.2749C33.3332 30.6632 33.3332 29.8865 33.3332 28.3332Z" stroke="#8E918F" stroke-width="3" stroke-linecap="round" stroke-linejoin="round"/>
</svg>
